<svg width="304" height="333" viewBox="0 0 304 333" fill="none" xmlns="http://www.w3.org/2000/svg">
<rect width="304" height="333" fill="#E5E5E5"/>
<path d="M221.137 20.146C226.464 18.6896 229.602 13.1903 228.146 7.86295C226.69 2.5356 221.19 -0.602435 215.863 0.853965L221.137 20.146ZM10 67.5L7.36295 57.854C3.01525 59.0425 0 62.9928 0 67.5H10ZM10 232H0C0 235.93 2.30222 239.496 5.88413 241.114L10 232ZM211.5 323L207.384 332.114C210.857 333.682 214.92 333.14 217.86 330.717L211.5 323ZM294 255L300.36 262.717C302.665 260.817 304 257.987 304 255H294ZM294 61H304C304 55.4772 299.523 51 294 51V61ZM153 51C147.477 51 143 55.4772 143 61C143 66.5228 147.477 71 153 71V51ZM215.863 0.853965L7.36295 57.854L12.637 77.146L221.137 20.146L215.863 0.853965ZM0 67.5V232H20V67.5H0ZM5.88413 241.114L207.384 332.114L215.616 313.886L14.1159 222.886L5.88413 241.114ZM217.86 330.717L300.36 262.717L287.64 247.283L205.14 315.283L217.86 330.717ZM304 255V61H284V255H304ZM294 51H153V71H294V51Z" fill="black"/>
<path d="M59.7 192V122H84.6C89.9667 122 94.5 122.8 98.2 124.4C101.9 126 104.7 128.467 106.6 131.8C108.533 135.133 109.5 139.4 109.5 144.6C109.5 149.867 108.55 154.217 106.65 157.65C104.75 161.05 101.967 163.583 98.3 165.25C94.6333 166.883 90.1667 167.7 84.9 167.7H72.5V192H59.7ZM72.5 157H83.4C87.7667 157 91.0333 156.017 93.2 154.05C95.4 152.083 96.5 149 96.5 144.8C96.5 140.6 95.3833 137.533 93.15 135.6C90.95 133.667 87.6 132.7 83.1 132.7H72.5V157ZM141.898 193C136.465 193 131.832 191.817 127.998 189.45C124.165 187.083 121.232 183.933 119.198 180C117.198 176.067 116.198 171.767 116.198 167.1C116.198 162.4 117.198 158.067 119.198 154.1C121.232 150.133 124.165 146.967 127.998 144.6C131.832 142.2 136.465 141 141.898 141C147.332 141 151.965 142.2 155.798 144.6C159.632 146.967 162.548 150.133 164.548 154.1C166.582 158.067 167.598 162.4 167.598 167.1C167.598 171.767 166.582 176.067 164.548 180C162.548 183.933 159.632 187.083 155.798 189.45C151.965 191.817 147.332 193 141.898 193ZM141.898 182.8C146.065 182.8 149.265 181.35 151.498 178.45C153.765 175.517 154.898 171.733 154.898 167.1C154.898 162.4 153.765 158.583 151.498 155.65C149.265 152.683 146.065 151.2 141.898 151.2C137.765 151.2 134.565 152.683 132.298 155.65C130.032 158.583 128.898 162.4 128.898 167.1C128.898 171.733 130.032 175.517 132.298 178.45C134.565 181.35 137.765 182.8 141.898 182.8ZM192.03 193C189.063 193 186.63 192.417 184.73 191.25C182.863 190.05 181.48 188.467 180.58 186.5C179.68 184.5 179.23 182.3 179.23 179.9V117H191.63V174.8C191.63 177.467 191.78 179.367 192.08 180.5C192.413 181.6 193.013 182.267 193.88 182.5C194.746 182.7 195.996 182.8 197.63 182.8L196.53 193H192.03ZM219.299 193C216.633 193 214.199 192.417 211.999 191.25C209.799 190.05 208.049 188.333 206.749 186.1C205.449 183.867 204.799 181.167 204.799 178C204.799 175.167 205.449 172.75 206.749 170.75C208.083 168.717 209.816 167.033 211.949 165.7C214.116 164.333 216.449 163.267 218.949 162.5C221.483 161.7 223.966 161.117 226.399 160.75C228.866 160.383 231.033 160.167 232.899 160.1C232.766 157.233 232.033 155.15 230.699 153.85C229.366 152.55 227.099 151.9 223.899 151.9C221.666 151.9 219.483 152.217 217.349 152.85C215.249 153.45 212.866 154.4 210.199 155.7L209.099 145.6C212.099 144.133 215.099 143.033 218.099 142.3C221.133 141.567 224.199 141.2 227.299 141.2C231.033 141.2 234.249 141.867 236.949 143.2C239.649 144.533 241.733 146.683 243.199 149.65C244.666 152.583 245.399 156.467 245.399 161.3V174.8C245.399 177.3 245.516 179.117 245.749 180.25C245.983 181.35 246.416 182.05 247.049 182.35C247.683 182.65 248.599 182.8 249.799 182.8H251.399L250.299 193H245.799C243.933 193 242.266 192.75 240.799 192.25C239.366 191.783 238.133 191.117 237.099 190.25C236.066 189.383 235.233 188.367 234.599 187.2C232.966 189.033 230.749 190.467 227.949 191.5C225.183 192.5 222.299 193 219.299 193ZM224.499 183.5C225.599 183.5 226.966 183.217 228.599 182.65C230.233 182.05 231.699 181.133 232.999 179.9V168.5C230.666 168.6 228.333 168.983 225.999 169.65C223.666 170.317 221.716 171.3 220.149 172.6C218.583 173.9 217.799 175.533 217.799 177.5C217.799 179.533 218.333 181.05 219.399 182.05C220.466 183.017 222.166 183.5 224.499 183.5Z" fill="#DE1C2D"/>
<path d="M59.7 192H58.7V193H59.7V192ZM59.7 122V121H58.7V122H59.7ZM98.2 124.4L98.5969 123.482L98.5969 123.482L98.2 124.4ZM106.6 131.8L105.731 132.295L105.735 132.302L106.6 131.8ZM106.65 157.65L107.523 158.138L107.525 158.134L106.65 157.65ZM98.3 165.25L98.7069 166.163L98.7138 166.16L98.3 165.25ZM72.5 167.7V166.7H71.5V167.7H72.5ZM72.5 192V193H73.5V192H72.5ZM72.5 157H71.5V158H72.5V157ZM93.2 154.05L92.5335 153.304L92.5279 153.31L93.2 154.05ZM93.15 135.6L92.4899 136.351L92.4955 136.356L93.15 135.6ZM72.5 132.7V131.7H71.5V132.7H72.5ZM60.7 192V122H58.7V192H60.7ZM59.7 123H84.6V121H59.7V123ZM84.6 123C89.873 123 94.2625 123.787 97.8031 125.318L98.5969 123.482C94.7375 121.813 90.0603 121 84.6 121V123ZM97.8031 125.318C101.315 126.836 103.944 129.16 105.731 132.295L107.469 131.305C105.456 127.773 102.485 125.164 98.5969 123.482L97.8031 125.318ZM105.735 132.302C107.554 135.438 108.5 139.517 108.5 144.6H110.5C110.5 139.283 109.512 134.828 107.465 131.298L105.735 132.302ZM108.5 144.6C108.5 149.753 107.57 153.923 105.775 157.166L107.525 158.134C109.53 154.511 110.5 149.98 110.5 144.6H108.5ZM105.777 157.162C103.985 160.369 101.366 162.758 97.8862 164.34L98.7138 166.16C102.568 164.409 105.515 161.731 107.523 158.138L105.777 157.162ZM97.8931 164.337C94.3878 165.898 90.0682 166.7 84.9 166.7V168.7C90.2651 168.7 94.8789 167.869 98.7069 166.163L97.8931 164.337ZM84.9 166.7H72.5V168.7H84.9V166.7ZM71.5 167.7V192H73.5V167.7H71.5ZM72.5 191H59.7V193H72.5V191ZM72.5 158H83.4V156H72.5V158ZM83.4 158C87.8957 158 91.4489 156.99 93.8721 154.79L92.5279 153.31C90.6178 155.043 87.6376 156 83.4 156V158ZM93.8665 154.796C96.3561 152.57 97.5 149.161 97.5 144.8H95.5C95.5 148.839 94.4439 151.597 92.5335 153.304L93.8665 154.796ZM97.5 144.8C97.5 140.436 96.3376 137.037 93.8045 134.844L92.4955 136.356C94.4291 138.03 95.5 140.764 95.5 144.8H97.5ZM93.8101 134.849C91.3515 132.688 87.7178 131.7 83.1 131.7V133.7C87.4822 133.7 90.5485 134.645 92.4899 136.351L93.8101 134.849ZM83.1 131.7H72.5V133.7H83.1V131.7ZM71.5 132.7V157H73.5V132.7H71.5ZM127.998 189.45L128.524 188.599L128.524 188.599L127.998 189.45ZM119.198 180L118.307 180.453L118.31 180.459L119.198 180ZM119.198 154.1L118.309 153.644L118.306 153.65L119.198 154.1ZM127.998 144.6L128.524 145.451L128.529 145.448L127.998 144.6ZM155.798 144.6L155.268 145.448L155.273 145.451L155.798 144.6ZM164.548 154.1L163.655 154.55L163.659 154.556L164.548 154.1ZM164.548 180L163.66 179.541L163.657 179.547L164.548 180ZM155.798 189.45L156.324 190.301L155.798 189.45ZM151.498 178.45L150.707 177.839L150.706 177.84L151.498 178.45ZM151.498 155.65L150.699 156.251L150.707 156.261L151.498 155.65ZM132.298 155.65L133.09 156.261L133.093 156.257L132.298 155.65ZM132.298 178.45L131.507 179.061L131.511 179.066L132.298 178.45ZM141.898 192C136.612 192 132.169 190.85 128.524 188.599L127.473 190.301C131.494 192.783 136.318 194 141.898 194V192ZM128.524 188.599C124.842 186.326 122.035 183.31 120.087 179.541L118.31 180.459C120.428 184.557 123.488 187.841 127.473 190.301L128.524 188.599ZM120.09 179.547C118.165 175.762 117.198 171.618 117.198 167.1H115.198C115.198 171.915 116.232 176.371 118.307 180.453L120.09 179.547ZM117.198 167.1C117.198 162.547 118.166 158.369 120.091 154.55L118.306 153.65C116.231 157.764 115.198 162.253 115.198 167.1H117.198ZM120.088 154.556C122.038 150.754 124.844 147.723 128.524 145.451L127.473 143.749C123.486 146.211 120.426 149.513 118.309 153.644L120.088 154.556ZM128.529 145.448C132.174 143.166 136.615 142 141.898 142V140C136.316 140 131.49 141.234 127.468 143.752L128.529 145.448ZM141.898 142C147.182 142 151.623 143.166 155.268 145.448L156.329 143.752C152.307 141.234 147.481 140 141.898 140V142ZM155.273 145.451C158.952 147.722 161.74 150.751 163.656 154.55L165.441 153.65C163.357 149.516 160.312 146.211 156.324 143.749L155.273 145.451ZM163.659 154.556C165.616 158.374 166.598 162.55 166.598 167.1H168.598C168.598 162.25 167.548 157.759 165.438 153.644L163.659 154.556ZM166.598 167.1C166.598 171.616 165.616 175.757 163.66 179.541L165.437 180.459C167.547 176.376 168.598 171.918 168.598 167.1H166.598ZM163.657 179.547C161.742 183.313 158.954 186.327 155.273 188.599L156.324 190.301C160.31 187.84 163.355 184.554 165.44 180.453L163.657 179.547ZM155.273 188.599C151.627 190.85 147.185 192 141.898 192V194C147.479 194 152.303 192.783 156.324 190.301L155.273 188.599ZM141.898 183.8C146.327 183.8 149.84 182.242 152.291 179.06L150.706 177.84C148.69 180.458 145.804 181.8 141.898 181.8V183.8ZM152.29 179.061C154.723 175.913 155.898 171.898 155.898 167.1H153.898C153.898 171.568 152.808 175.12 150.707 177.839L152.29 179.061ZM155.898 167.1C155.898 162.239 154.724 158.189 152.29 155.039L150.707 156.261C152.806 158.977 153.898 162.561 153.898 167.1H155.898ZM152.297 155.049C149.85 151.798 146.335 150.2 141.898 150.2V152.2C145.795 152.2 148.68 153.569 150.7 156.251L152.297 155.049ZM141.898 150.2C137.492 150.2 133.982 151.8 131.504 155.043L133.093 156.257C135.148 153.567 138.038 152.2 141.898 152.2V150.2ZM131.507 155.039C129.073 158.189 127.898 162.239 127.898 167.1H129.898C129.898 162.561 130.991 158.977 133.09 156.261L131.507 155.039ZM127.898 167.1C127.898 171.898 129.074 175.913 131.507 179.061L133.09 177.839C130.989 175.12 129.898 171.568 129.898 167.1H127.898ZM131.511 179.066C133.992 182.24 137.5 183.8 141.898 183.8V181.8C138.03 181.8 135.138 180.46 133.086 177.834L131.511 179.066ZM184.73 191.25L184.189 192.091L184.198 192.097L184.206 192.102L184.73 191.25ZM180.58 186.5L179.668 186.91L179.67 186.916L180.58 186.5ZM179.23 117V116H178.23V117H179.23ZM191.63 117H192.63V116H191.63V117ZM192.08 180.5L191.113 180.756L191.118 180.773L191.123 180.79L192.08 180.5ZM193.88 182.5L193.62 183.466L193.637 183.47L193.655 183.474L193.88 182.5ZM197.63 182.8L198.624 182.907L198.743 181.8H197.63V182.8ZM196.53 193V194H197.428L197.524 193.107L196.53 193ZM192.03 192C189.188 192 186.952 191.441 185.253 190.398L184.206 192.102C186.308 193.392 188.938 194 192.03 194V192ZM185.27 190.409C183.56 189.309 182.307 187.872 181.489 186.084L179.67 186.916C180.652 189.062 182.166 190.791 184.189 192.091L185.27 190.409ZM181.492 186.09C180.655 184.23 180.23 182.172 180.23 179.9H178.23C178.23 182.428 178.704 184.77 179.668 186.91L181.492 186.09ZM180.23 179.9V117H178.23V179.9H180.23ZM179.23 118H191.63V116H179.23V118ZM190.63 117V174.8H192.63V117H190.63ZM190.63 174.8C190.63 177.472 190.777 179.486 191.113 180.756L193.046 180.244C192.783 179.247 192.63 177.462 192.63 174.8H190.63ZM191.123 180.79C191.524 182.115 192.325 183.117 193.62 183.466L194.14 181.534C193.701 181.416 193.302 181.085 193.037 180.21L191.123 180.79ZM193.655 183.474C194.633 183.7 195.972 183.8 197.63 183.8V181.8C196.02 181.8 194.86 181.7 194.105 181.526L193.655 183.474ZM196.635 182.693L195.535 192.893L197.524 193.107L198.624 182.907L196.635 182.693ZM196.53 192H192.03V194H196.53V192ZM211.999 191.25L211.52 192.128L211.531 192.133L211.999 191.25ZM206.749 186.1L205.885 186.603L206.749 186.1ZM206.749 170.75L205.913 170.202L205.911 170.205L206.749 170.75ZM211.949 165.7L212.479 166.548L212.483 166.546L211.949 165.7ZM218.949 162.5L219.242 163.456L219.25 163.454L218.949 162.5ZM226.399 160.75L226.252 159.761L226.25 159.761L226.399 160.75ZM232.899 160.1L232.935 161.099L233.945 161.063L233.898 160.054L232.899 160.1ZM230.699 153.85L230.001 154.566L230.001 154.566L230.699 153.85ZM217.349 152.85L217.624 153.812L217.634 153.809L217.349 152.85ZM210.199 155.7L209.205 155.808L209.359 157.222L210.637 156.599L210.199 155.7ZM209.099 145.6L208.66 144.702L208.029 145.01L208.105 145.708L209.099 145.6ZM218.099 142.3L217.864 141.328L217.862 141.329L218.099 142.3ZM236.949 143.2L237.392 142.303L237.392 142.303L236.949 143.2ZM243.199 149.65L242.303 150.093L242.305 150.097L243.199 149.65ZM245.749 180.25L244.77 180.452L244.771 180.458L245.749 180.25ZM247.049 182.35L246.621 183.254L246.621 183.254L247.049 182.35ZM251.399 182.8L252.393 182.907L252.513 181.8H251.399V182.8ZM250.299 193V194H251.197L251.293 193.107L250.299 193ZM240.799 192.25L241.122 191.303L241.109 191.299L240.799 192.25ZM237.099 190.25L236.457 191.016L236.457 191.016L237.099 190.25ZM234.599 187.2L235.478 186.723L234.799 185.472L233.853 186.535L234.599 187.2ZM227.949 191.5L228.289 192.44L228.295 192.438L227.949 191.5ZM228.599 182.65L228.927 183.595L228.936 183.592L228.944 183.589L228.599 182.65ZM232.999 179.9L233.687 180.625L233.999 180.33V179.9H232.999ZM232.999 168.5H233.999V167.456L232.956 167.501L232.999 168.5ZM225.999 169.65L225.724 168.688L225.724 168.688L225.999 169.65ZM220.149 172.6L219.511 171.83L219.511 171.83L220.149 172.6ZM219.399 182.05L218.715 182.78L218.721 182.785L218.728 182.791L219.399 182.05ZM219.299 192C216.784 192 214.513 191.451 212.468 190.367L211.531 192.133C213.885 193.382 216.481 194 219.299 194V192ZM212.478 190.372C210.444 189.262 208.825 187.678 207.613 185.597L205.885 186.603C207.274 188.989 209.155 190.838 211.52 192.128L212.478 190.372ZM207.613 185.597C206.42 183.547 205.799 181.03 205.799 178H203.799C203.799 181.304 204.478 184.186 205.885 186.603L207.613 185.597ZM205.799 178C205.799 175.323 206.412 173.104 207.588 171.295L205.911 170.205C204.487 172.396 203.799 175.01 203.799 178H205.799ZM207.585 171.298C208.837 169.39 210.464 167.807 212.479 166.548L211.419 164.852C209.168 166.259 207.328 168.043 205.913 170.202L207.585 171.298ZM212.483 166.546C214.573 165.227 216.825 164.197 219.242 163.456L218.656 161.544C216.073 162.336 213.659 163.439 211.416 164.854L212.483 166.546ZM219.25 163.454C221.738 162.668 224.17 162.097 226.548 161.739L226.25 159.761C223.761 160.136 221.227 160.732 218.648 161.546L219.25 163.454ZM226.546 161.739C228.987 161.376 231.115 161.164 232.935 161.099L232.864 159.101C230.95 159.169 228.744 159.39 226.252 159.761L226.546 161.739ZM233.898 160.054C233.759 157.066 232.989 154.686 231.397 153.134L230.001 154.566C231.076 155.614 231.773 157.4 231.9 160.146L233.898 160.054ZM231.397 153.134C229.782 151.559 227.186 150.9 223.899 150.9V152.9C227.013 152.9 228.95 153.541 230.001 154.566L231.397 153.134ZM223.899 150.9C221.57 150.9 219.291 151.23 217.065 151.891L217.634 153.809C219.674 153.203 221.762 152.9 223.899 152.9V150.9ZM217.074 151.888C214.902 152.509 212.463 153.484 209.761 154.801L210.637 156.599C213.269 155.316 215.596 154.391 217.624 153.812L217.074 151.888ZM211.193 155.592L210.093 145.492L208.105 145.708L209.205 155.808L211.193 155.592ZM209.538 146.498C212.479 145.061 215.412 143.986 218.337 143.271L217.862 141.329C214.787 142.08 211.719 143.206 208.66 144.702L209.538 146.498ZM218.334 143.272C221.291 142.557 224.279 142.2 227.299 142.2V140.2C224.12 140.2 220.974 140.576 217.864 141.328L218.334 143.272ZM227.299 142.2C230.915 142.2 233.973 142.846 236.506 144.097L237.392 142.303C234.525 140.888 231.15 140.2 227.299 140.2V142.2ZM236.506 144.097C238.99 145.323 240.923 147.303 242.303 150.093L244.096 149.207C242.542 146.064 240.309 143.744 237.392 142.303L236.506 144.097ZM242.305 150.097C243.677 152.842 244.399 156.554 244.399 161.3H246.399C246.399 156.379 245.655 152.325 244.094 149.203L242.305 150.097ZM244.399 161.3V174.8H246.399V161.3H244.399ZM244.399 174.8C244.399 177.308 244.515 179.212 244.77 180.452L246.729 180.048C246.517 179.021 246.399 177.292 246.399 174.8H244.399ZM244.771 180.458C245.03 181.677 245.57 182.756 246.621 183.254L247.477 181.446C247.262 181.344 246.935 181.023 246.727 180.042L244.771 180.458ZM246.621 183.254C247.452 183.647 248.542 183.8 249.799 183.8V181.8C248.656 181.8 247.914 181.653 247.477 181.446L246.621 183.254ZM249.799 183.8H251.399V181.8H249.799V183.8ZM250.405 182.693L249.305 192.893L251.293 193.107L252.393 182.907L250.405 182.693ZM250.299 192H245.799V194H250.299V192ZM245.799 192C244.021 192 242.466 191.762 241.122 191.303L240.477 193.197C242.066 193.738 243.845 194 245.799 194V192ZM241.109 191.299C239.783 190.867 238.666 190.259 237.742 189.484L236.457 191.016C237.599 191.974 238.949 192.699 240.49 193.201L241.109 191.299ZM237.742 189.484C236.803 188.697 236.051 187.777 235.478 186.723L233.72 187.677C234.415 188.956 235.329 190.07 236.457 191.016L237.742 189.484ZM233.853 186.535C232.349 188.222 230.282 189.573 227.603 190.562L228.295 192.438C231.216 191.36 233.582 189.845 235.346 187.865L233.853 186.535ZM227.609 190.56C224.954 191.519 222.186 192 219.299 192V194C222.413 194 225.411 193.481 228.289 192.44L227.609 190.56ZM224.499 184.5C225.756 184.5 227.241 184.18 228.927 183.595L228.271 181.705C226.69 182.254 225.443 182.5 224.499 182.5V184.5ZM228.944 183.589C230.709 182.94 232.292 181.95 233.687 180.625L232.311 179.175C231.107 180.317 229.756 181.16 228.254 181.711L228.944 183.589ZM233.999 179.9V168.5H231.999V179.9H233.999ZM232.956 167.501C230.542 167.604 228.13 168.001 225.724 168.688L226.274 170.612C228.535 169.966 230.79 169.596 233.042 169.499L232.956 167.501ZM225.724 168.688C223.283 169.386 221.202 170.427 219.511 171.83L220.788 173.37C222.229 172.173 224.049 171.247 226.274 170.612L225.724 168.688ZM219.511 171.83C217.724 173.313 216.799 175.224 216.799 177.5H218.799C218.799 175.843 219.441 174.487 220.788 173.37L219.511 171.83ZM216.799 177.5C216.799 179.699 217.378 181.526 218.715 182.78L220.083 181.32C219.287 180.574 218.799 179.368 218.799 177.5H216.799ZM218.728 182.791C220.063 184.001 222.063 184.5 224.499 184.5V182.5C222.269 182.5 220.869 182.032 220.071 181.309L218.728 182.791Z" fill="#DE1C2D"/>
</svg>
